<svg xmlns="http://www.w3.org/2000/svg" xmlns:xlink="http://www.w3.org/1999/xlink" width="725" zoomAndPan="magnify" viewBox="0 0 543.75 112.499997" height="150" preserveAspectRatio="xMidYMid meet" version="1.0"><defs><g/></defs><g fill="#ffffff" fill-opacity="1"><g transform="translate(59.431424, 96.226359)"><g><path d="M 4.84375 0 L 4.84375 -74.625 L 21.328125 -74.625 L 21.328125 0 Z M 4.84375 0 "/></g></g></g><g fill="#ffffff" fill-opacity="1"><g transform="translate(85.598397, 96.226359)"><g><path d="M 40.125 -36.4375 L 40.125 -20.734375 L 6.78125 -20.734375 L 6.78125 -36.4375 Z M 40.125 -36.4375 "/></g></g></g><g fill="#ffffff" fill-opacity="1"><g transform="translate(132.408195, 96.226359)"><g><path d="M 4.84375 0 L 4.84375 -74.625 L 21.328125 -74.625 L 21.328125 0 Z M 4.84375 0 "/></g></g></g><g fill="#ffffff" fill-opacity="1"><g transform="translate(158.575168, 96.226359)"><g/></g></g><g fill="#ffffff" fill-opacity="1"><g transform="translate(187.649582, 96.226359)"><g><path d="M 9.640625 -48.796875 C 11.546875 -50.578125 13.921875 -51.46875 16.765625 -51.46875 C 19.609375 -51.46875 21.984375 -50.578125 23.890625 -48.796875 C 25.796875 -47.023438 26.75 -44.75 26.75 -41.96875 C 26.75 -39.1875 25.796875 -36.90625 23.890625 -35.125 C 21.984375 -33.351562 19.609375 -32.46875 16.765625 -32.46875 C 13.921875 -32.46875 11.546875 -33.351562 9.640625 -35.125 C 7.734375 -36.90625 6.78125 -39.1875 6.78125 -41.96875 C 6.78125 -44.75 7.734375 -47.023438 9.640625 -48.796875 Z M 9.640625 -15.0625 C 11.546875 -16.84375 13.921875 -17.734375 16.765625 -17.734375 C 19.609375 -17.734375 21.984375 -16.84375 23.890625 -15.0625 C 25.796875 -13.289062 26.75 -11.015625 26.75 -8.234375 C 26.75 -5.460938 25.796875 -3.1875 23.890625 -1.40625 C 21.984375 0.375 19.609375 1.265625 16.765625 1.265625 C 13.921875 1.265625 11.546875 0.375 9.640625 -1.40625 C 7.734375 -3.1875 6.78125 -5.460938 6.78125 -8.234375 C 6.78125 -11.015625 7.734375 -13.289062 9.640625 -15.0625 Z M 9.640625 -15.0625 "/></g></g></g><g fill="#ffffff" fill-opacity="1"><g transform="translate(221.182071, 96.226359)"><g/></g></g><g fill="#ffffff" fill-opacity="1"><g transform="translate(250.256485, 96.226359)"><g><path d="M 45.265625 -16.671875 L 48.078125 -3.390625 C 46.390625 -2.222656 43.960938 -1.15625 40.796875 -0.1875 C 37.640625 0.78125 34.507812 1.265625 31.40625 1.265625 C 25.65625 1.265625 20.820312 -0.523438 16.90625 -4.109375 C 13 -7.703125 11.046875 -13.210938 11.046875 -20.640625 L 11.046875 -37.796875 L 1.9375 -37.796875 L 1.9375 -53.3125 L 11.046875 -53.3125 L 11.046875 -64.265625 L 27.53125 -67.84375 L 27.53125 -53.3125 L 45.453125 -53.3125 L 45.453125 -37.796875 L 27.53125 -37.796875 L 27.53125 -21.609375 C 27.53125 -16.566406 29.789062 -14.046875 34.3125 -14.046875 C 36.125 -14.046875 39.773438 -14.921875 45.265625 -16.671875 Z M 45.265625 -16.671875 "/></g></g></g><g fill="#ffffff" fill-opacity="1"><g transform="translate(301.71818, 96.226359)"><g><path d="M 31.984375 -54.5625 C 40.703125 -54.5625 47.675781 -51.539062 52.90625 -45.5 C 58.144531 -39.457031 60.347656 -32.015625 59.515625 -23.171875 L 20.640625 -23.171875 C 21.023438 -19.285156 22.300781 -16.359375 24.46875 -14.390625 C 26.632812 -12.421875 29.269531 -11.4375 32.375 -11.4375 C 34.632812 -11.4375 36.601562 -11.96875 38.28125 -13.03125 C 39.957031 -14.101562 41.117188 -15.578125 41.765625 -17.453125 L 58.734375 -17.453125 C 56.992188 -11.179688 53.710938 -6.492188 48.890625 -3.390625 C 44.078125 -0.285156 38.570312 1.265625 32.375 1.265625 C 23.96875 1.265625 17.113281 -1.382812 11.8125 -6.6875 C 6.519531 -11.988281 3.875 -18.644531 3.875 -26.65625 C 3.875 -34.601562 6.503906 -41.238281 11.765625 -46.5625 C 17.035156 -51.894531 23.773438 -54.5625 31.984375 -54.5625 Z M 31.890625 -41.875 C 26.265625 -41.875 22.675781 -38.960938 21.125 -33.140625 L 42.359375 -33.140625 C 41.773438 -35.796875 40.59375 -37.914062 38.8125 -39.5 C 37.039062 -41.082031 34.734375 -41.875 31.890625 -41.875 Z M 31.890625 -41.875 "/></g></g></g><g fill="#ffffff" fill-opacity="1"><g transform="translate(364.325083, 96.226359)"><g><path d="M 31.796875 1.265625 C 23.710938 1.265625 17.035156 -1.398438 11.765625 -6.734375 C 6.503906 -12.066406 3.875 -18.707031 3.875 -26.65625 C 3.875 -34.601562 6.503906 -41.238281 11.765625 -46.5625 C 17.035156 -51.894531 23.742188 -54.5625 31.890625 -54.5625 C 38.804688 -54.5625 44.816406 -52.570312 49.921875 -48.59375 C 55.023438 -44.625 57.960938 -39.1875 58.734375 -32.28125 L 41.765625 -32.28125 C 40.609375 -36.988281 37.316406 -39.34375 31.890625 -39.34375 C 28.335938 -39.34375 25.554688 -38.179688 23.546875 -35.859375 C 21.546875 -33.535156 20.546875 -30.46875 20.546875 -26.65625 C 20.546875 -22.84375 21.5625 -19.769531 23.59375 -17.4375 C 25.632812 -15.113281 28.367188 -13.953125 31.796875 -13.953125 C 34.179688 -13.953125 36.296875 -14.550781 38.140625 -15.75 C 39.984375 -16.945312 41.191406 -18.738281 41.765625 -21.125 L 58.734375 -21.125 C 57.890625 -14.082031 54.898438 -8.585938 49.765625 -4.640625 C 44.628906 -0.703125 38.640625 1.265625 31.796875 1.265625 Z M 31.796875 1.265625 "/></g></g></g><g fill="#ffffff" fill-opacity="1"><g transform="translate(425.962823, 96.226359)"><g><path d="M 37.21875 -54.5625 C 43.09375 -54.5625 47.742188 -52.65625 51.171875 -48.84375 C 54.597656 -45.03125 56.3125 -39.863281 56.3125 -33.34375 L 56.3125 0 L 39.828125 0 L 39.828125 -29.65625 C 39.828125 -32.757812 39.226562 -35.066406 38.03125 -36.578125 C 36.84375 -38.097656 34.664062 -38.859375 31.5 -38.859375 C 25.039062 -38.859375 21.8125 -35.335938 21.8125 -28.296875 L 21.8125 0 L 5.328125 0 L 5.328125 -74.625 L 21.8125 -74.625 L 21.8125 -47.296875 C 25.75 -52.140625 30.882812 -54.5625 37.21875 -54.5625 Z M 37.21875 -54.5625 "/></g></g></g><g fill="#ffffff" fill-opacity="1"><g transform="translate(488.666376, 83.887222)"><g><path d="M 41.765625 -33.4375 L 45.453125 -33.4375 L 45.453125 -16.96875 L 41.765625 -16.96875 C 38.347656 -16.96875 36.117188 -16.300781 35.078125 -14.96875 C 34.046875 -13.644531 33.53125 -11.175781 33.53125 -7.5625 L 33.53125 -5.328125 C 33.53125 0.160156 32.722656 4.972656 31.109375 9.109375 C 29.492188 13.242188 27.34375 16.457031 24.65625 18.75 C 21.976562 21.039062 19.132812 22.734375 16.125 23.828125 C 13.125 24.929688 10.007812 25.484375 6.78125 25.484375 L 6.78125 9.796875 C 8.59375 9.460938 10.03125 9.019531 11.09375 8.46875 C 12.164062 7.925781 13.203125 6.941406 14.203125 5.515625 C 15.203125 4.097656 15.925781 2.019531 16.375 -0.71875 C 16.832031 -3.46875 17.0625 -7.007812 17.0625 -11.34375 L 17.0625 -12.703125 C 17.0625 -17.222656 17.976562 -20.320312 19.8125 -22 C 21.65625 -23.675781 24.582031 -24.742188 28.59375 -25.203125 C 24.582031 -25.648438 21.65625 -26.710938 19.8125 -28.390625 C 17.976562 -30.078125 17.0625 -33.179688 17.0625 -37.703125 L 17.0625 -39.0625 C 17.0625 -43.382812 16.832031 -46.921875 16.375 -49.671875 C 15.925781 -52.421875 15.203125 -54.503906 14.203125 -55.921875 C 13.203125 -57.347656 12.164062 -58.332031 11.09375 -58.875 C 10.03125 -59.425781 8.59375 -59.863281 6.78125 -60.1875 L 6.78125 -75.890625 C 10.007812 -75.890625 13.125 -75.335938 16.125 -74.234375 C 19.132812 -73.140625 21.976562 -71.445312 24.65625 -69.15625 C 27.34375 -66.863281 29.492188 -63.648438 31.109375 -59.515625 C 32.722656 -55.378906 33.53125 -50.5625 33.53125 -45.0625 L 33.53125 -42.84375 C 33.53125 -39.21875 34.046875 -36.742188 35.078125 -35.421875 C 36.117188 -34.097656 38.347656 -33.4375 41.765625 -33.4375 Z M 41.765625 -33.4375 "/></g></g></g><g fill="#ffffff" fill-opacity="1"><g transform="translate(2.838561, 83.887222)"><g><path d="M 35.1875 -37.703125 C 35.1875 -33.179688 34.265625 -30.078125 32.421875 -28.390625 C 30.578125 -26.710938 27.65625 -25.648438 23.65625 -25.203125 C 27.65625 -24.742188 30.578125 -23.675781 32.421875 -22 C 34.265625 -20.320312 35.1875 -17.222656 35.1875 -12.703125 L 35.1875 -11.34375 C 35.1875 -7.007812 35.410156 -3.46875 35.859375 -0.71875 C 36.316406 2.019531 37.046875 4.097656 38.046875 5.515625 C 39.046875 6.941406 40.078125 7.925781 41.140625 8.46875 C 42.210938 9.019531 43.648438 9.460938 45.453125 9.796875 L 45.453125 25.484375 C 42.222656 25.484375 39.101562 24.929688 36.09375 23.828125 C 33.09375 22.734375 30.25 21.039062 27.5625 18.75 C 24.882812 16.457031 22.738281 13.242188 21.125 9.109375 C 19.507812 4.972656 18.703125 0.160156 18.703125 -5.328125 L 18.703125 -7.5625 C 18.703125 -11.175781 18.1875 -13.644531 17.15625 -14.96875 C 16.125 -16.300781 13.894531 -16.96875 10.46875 -16.96875 L 6.78125 -16.96875 L 6.78125 -33.4375 L 10.46875 -33.4375 C 13.894531 -33.4375 16.125 -34.097656 17.15625 -35.421875 C 18.1875 -36.742188 18.703125 -39.21875 18.703125 -42.84375 L 18.703125 -45.0625 C 18.703125 -50.5625 19.507812 -55.378906 21.125 -59.515625 C 22.738281 -63.648438 24.882812 -66.863281 27.5625 -69.15625 C 30.25 -71.445312 33.09375 -73.140625 36.09375 -74.234375 C 39.101562 -75.335938 42.222656 -75.890625 45.453125 -75.890625 L 45.453125 -60.1875 C 43.648438 -59.863281 42.210938 -59.425781 41.140625 -58.875 C 40.078125 -58.332031 39.046875 -57.347656 38.046875 -55.921875 C 37.046875 -54.503906 36.316406 -52.421875 35.859375 -49.671875 C 35.410156 -46.921875 35.1875 -43.382812 35.1875 -39.0625 Z M 35.1875 -37.703125 "/></g></g></g></svg>