<svg xmlns="http://www.w3.org/2000/svg" xmlns:xlink="http://www.w3.org/1999/xlink" width="1000" zoomAndPan="magnify" viewBox="0 0 750 749.999995" height="1000" preserveAspectRatio="xMidYMid meet" version="1.0"><defs><g/><clipPath id="90d5bd796e"><path d="M 50.097656 248.855469 L 302.425781 248.855469 L 302.425781 501.1875 L 50.097656 501.1875 Z M 50.097656 248.855469 " clip-rule="nonzero"/></clipPath><clipPath id="ed19c1ffbb"><path d="M 88.214844 425.320312 L 205.515625 425.320312 L 205.515625 448.960938 L 88.214844 448.960938 Z M 88.214844 425.320312 " clip-rule="nonzero"/></clipPath><clipPath id="44db72445a"><path d="M 88.214844 301.078125 L 111.851562 301.078125 L 111.851562 448.8125 L 88.214844 448.8125 Z M 88.214844 301.078125 " clip-rule="nonzero"/></clipPath><clipPath id="2f205d8863"><path d="M 146.964844 301.035156 L 264.265625 301.035156 L 264.265625 324.675781 L 146.964844 324.675781 Z M 146.964844 301.035156 " clip-rule="nonzero"/></clipPath><clipPath id="ad82d30bc7"><path d="M 240.625 301.183594 L 264.261719 301.183594 L 264.261719 448.917969 L 240.625 448.917969 Z M 240.625 301.183594 " clip-rule="nonzero"/></clipPath><clipPath id="89b6bb6944"><path d="M 140.796875 363.253906 L 211.707031 363.253906 L 211.707031 386.890625 L 140.796875 386.890625 Z M 140.796875 363.253906 " clip-rule="nonzero"/></clipPath></defs><rect x="-75" width="900" fill="#ffffff" y="-74.999999" height="899.999994" fill-opacity="1"/><rect x="-75" width="900" fill="#ffffff" y="-74.999999" height="899.999994" fill-opacity="1"/><g clip-path="url(#90d5bd796e)"><path fill="#000000" d="M 176.261719 248.855469 C 106.582031 248.855469 50.097656 305.34375 50.097656 375.023438 C 50.097656 444.699219 106.582031 501.1875 176.261719 501.1875 C 245.941406 501.1875 302.425781 444.699219 302.425781 375.023438 C 302.425781 305.34375 245.941406 248.855469 176.261719 248.855469 " fill-opacity="1" fill-rule="nonzero"/></g><g clip-path="url(#ed19c1ffbb)"><path fill="#ffffff" d="M 88.226562 425.320312 L 205.507812 425.320312 L 205.507812 448.960938 L 88.226562 448.960938 L 88.226562 425.320312 " fill-opacity="1" fill-rule="nonzero"/></g><g clip-path="url(#44db72445a)"><path fill="#ffffff" d="M 88.214844 448.800781 L 88.214844 301.089844 L 111.851562 301.089844 L 111.851562 448.800781 L 88.214844 448.800781 " fill-opacity="1" fill-rule="nonzero"/></g><g clip-path="url(#2f205d8863)"><path fill="#ffffff" d="M 264.253906 324.675781 L 146.972656 324.675781 L 146.972656 301.035156 L 264.253906 301.035156 L 264.253906 324.675781 " fill-opacity="1" fill-rule="nonzero"/></g><g clip-path="url(#ad82d30bc7)"><path fill="#ffffff" d="M 264.261719 301.195312 L 264.261719 448.90625 L 240.625 448.90625 L 240.625 301.195312 L 264.261719 301.195312 " fill-opacity="1" fill-rule="nonzero"/></g><g clip-path="url(#89b6bb6944)"><path fill="#ffffff" d="M 140.800781 363.253906 L 211.703125 363.253906 L 211.703125 386.890625 L 140.800781 386.890625 L 140.800781 363.253906 " fill-opacity="1" fill-rule="nonzero"/></g><g fill="#000000" fill-opacity="1"><g transform="translate(319.122174, 410.250235)"><g><path d="M 5 0 L 5 -77 L 22 -77 L 22 0 Z M 5 0 "/></g></g></g><g fill="#000000" fill-opacity="1"><g transform="translate(346.121131, 410.250235)"><g><path d="M 41.40625 -37.59375 L 41.40625 -21.40625 L 7 -21.40625 L 7 -37.59375 Z M 41.40625 -37.59375 "/></g></g></g><g fill="#000000" fill-opacity="1"><g transform="translate(394.41927, 410.250235)"><g><path d="M 5 0 L 5 -77 L 22 -77 L 22 0 Z M 5 0 "/></g></g></g><g fill="#000000" fill-opacity="1"><g transform="translate(421.418227, 410.250235)"><g><path d="M 9.953125 -15.546875 C 11.921875 -17.378906 14.367188 -18.296875 17.296875 -18.296875 C 20.234375 -18.296875 22.679688 -17.378906 24.640625 -15.546875 C 26.609375 -13.710938 27.59375 -11.363281 27.59375 -8.5 C 27.59375 -5.632812 26.609375 -3.285156 24.640625 -1.453125 C 22.679688 0.378906 20.234375 1.296875 17.296875 1.296875 C 14.367188 1.296875 11.921875 0.378906 9.953125 -1.453125 C 7.984375 -3.285156 7 -5.632812 7 -8.5 C 7 -11.363281 7.984375 -13.710938 9.953125 -15.546875 Z M 9.953125 -15.546875 "/></g></g></g><g fill="#000000" fill-opacity="1"><g transform="translate(456.016896, 410.250235)"><g><path d="M 46.703125 -17.203125 L 49.59375 -3.5 C 47.863281 -2.300781 45.363281 -1.203125 42.09375 -0.203125 C 38.832031 0.796875 35.601562 1.296875 32.40625 1.296875 C 26.46875 1.296875 21.484375 -0.550781 17.453125 -4.25 C 13.421875 -7.945312 11.40625 -13.628906 11.40625 -21.296875 L 11.40625 -39 L 2 -39 L 2 -55 L 11.40625 -55 L 11.40625 -66.296875 L 28.40625 -70 L 28.40625 -55 L 46.90625 -55 L 46.90625 -39 L 28.40625 -39 L 28.40625 -22.296875 C 28.40625 -17.097656 30.738281 -14.5 35.40625 -14.5 C 37.269531 -14.5 41.035156 -15.398438 46.703125 -17.203125 Z M 46.703125 -17.203125 "/></g></g></g><g fill="#000000" fill-opacity="1"><g transform="translate(509.114848, 410.250235)"><g><path d="M 33 -56.296875 C 42 -56.296875 49.195312 -53.175781 54.59375 -46.9375 C 60 -40.707031 62.269531 -33.03125 61.40625 -23.90625 L 21.296875 -23.90625 C 21.703125 -19.90625 23.019531 -16.882812 25.25 -14.84375 C 27.476562 -12.8125 30.195312 -11.796875 33.40625 -11.796875 C 35.738281 -11.796875 37.769531 -12.34375 39.5 -13.4375 C 41.226562 -14.539062 42.425781 -16.0625 43.09375 -18 L 60.59375 -18 C 58.800781 -11.53125 55.421875 -6.695312 50.453125 -3.5 C 45.484375 -0.300781 39.800781 1.296875 33.40625 1.296875 C 24.738281 1.296875 17.671875 -1.429688 12.203125 -6.890625 C 6.734375 -12.359375 4 -19.226562 4 -27.5 C 4 -35.695312 6.710938 -42.546875 12.140625 -48.046875 C 17.578125 -53.546875 24.53125 -56.296875 33 -56.296875 Z M 32.90625 -43.203125 C 27.101562 -43.203125 23.398438 -40.203125 21.796875 -34.203125 L 43.703125 -34.203125 C 43.097656 -36.929688 41.878906 -39.113281 40.046875 -40.75 C 38.210938 -42.382812 35.832031 -43.203125 32.90625 -43.203125 Z M 32.90625 -43.203125 "/></g></g></g><g fill="#000000" fill-opacity="1"><g transform="translate(573.712371, 410.250235)"><g><path d="M 32.796875 1.296875 C 24.460938 1.296875 17.578125 -1.453125 12.140625 -6.953125 C 6.710938 -12.453125 4 -19.300781 4 -27.5 C 4 -35.695312 6.710938 -42.546875 12.140625 -48.046875 C 17.578125 -53.546875 24.5 -56.296875 32.90625 -56.296875 C 40.03125 -56.296875 46.226562 -54.242188 51.5 -50.140625 C 56.769531 -46.046875 59.800781 -40.429688 60.59375 -33.296875 L 43.09375 -33.296875 C 41.894531 -38.160156 38.5 -40.59375 32.90625 -40.59375 C 29.238281 -40.59375 26.367188 -39.394531 24.296875 -37 C 22.234375 -34.601562 21.203125 -31.4375 21.203125 -27.5 C 21.203125 -23.5625 22.25 -20.394531 24.34375 -18 C 26.445312 -15.601562 29.265625 -14.40625 32.796875 -14.40625 C 35.265625 -14.40625 37.445312 -15.019531 39.34375 -16.25 C 41.25 -17.476562 42.5 -19.328125 43.09375 -21.796875 L 60.59375 -21.796875 C 59.726562 -14.535156 56.644531 -8.867188 51.34375 -4.796875 C 46.050781 -0.734375 39.867188 1.296875 32.796875 1.296875 Z M 32.796875 1.296875 "/></g></g></g><g fill="#000000" fill-opacity="1"><g transform="translate(637.309933, 410.250235)"><g><path d="M 38.40625 -56.296875 C 44.46875 -56.296875 49.265625 -54.328125 52.796875 -50.390625 C 56.328125 -46.460938 58.09375 -41.132812 58.09375 -34.40625 L 58.09375 0 L 41.09375 0 L 41.09375 -30.59375 C 41.09375 -33.800781 40.476562 -36.1875 39.25 -37.75 C 38.019531 -39.3125 35.769531 -40.09375 32.5 -40.09375 C 25.832031 -40.09375 22.5 -36.460938 22.5 -29.203125 L 22.5 0 L 5.5 0 L 5.5 -77 L 22.5 -77 L 22.5 -48.796875 C 26.5625 -53.796875 31.863281 -56.296875 38.40625 -56.296875 Z M 38.40625 -56.296875 "/></g></g></g></svg>