<svg xmlns="http://www.w3.org/2000/svg" xmlns:xlink="http://www.w3.org/1999/xlink" width="950" zoomAndPan="magnify" viewBox="0 0 712.5 225" height="300" preserveAspectRatio="xMidYMid meet" version="1.0"><defs><g/><clipPath id="e9f71713ec"><path d="M 2.136719 5.703125 L 213.839844 5.703125 L 213.839844 217.40625 L 2.136719 217.40625 Z M 2.136719 5.703125 " clip-rule="nonzero"/></clipPath><clipPath id="2230c5bcef"><path d="M 34.117188 153.757812 L 132.53125 153.757812 L 132.53125 173.589844 L 34.117188 173.589844 Z M 34.117188 153.757812 " clip-rule="nonzero"/></clipPath><clipPath id="5b3d5d63c3"><path d="M 34.117188 49.515625 L 53.949219 49.515625 L 53.949219 173.464844 L 34.117188 173.464844 Z M 34.117188 49.515625 " clip-rule="nonzero"/></clipPath><clipPath id="a4f95ec687"><path d="M 83.40625 49.480469 L 181.820312 49.480469 L 181.820312 69.3125 L 83.40625 69.3125 Z M 83.40625 49.480469 " clip-rule="nonzero"/></clipPath><clipPath id="bb3e3a86b9"><path d="M 161.988281 49.605469 L 181.820312 49.605469 L 181.820312 173.554688 L 161.988281 173.554688 Z M 161.988281 49.605469 " clip-rule="nonzero"/></clipPath><clipPath id="f6378404cf"><path d="M 78.234375 101.679688 L 137.726562 101.679688 L 137.726562 121.511719 L 78.234375 121.511719 Z M 78.234375 101.679688 " clip-rule="nonzero"/></clipPath></defs><g clip-path="url(#e9f71713ec)"><path fill="#000000" d="M 107.988281 5.703125 C 49.527344 5.703125 2.136719 53.09375 2.136719 111.554688 C 2.136719 170.015625 49.527344 217.40625 107.988281 217.40625 C 166.449219 217.40625 213.839844 170.015625 213.839844 111.554688 C 213.839844 53.09375 166.449219 5.703125 107.988281 5.703125 " fill-opacity="1" fill-rule="nonzero"/></g><g clip-path="url(#2230c5bcef)"><path fill="#ffffff" d="M 34.125 153.757812 L 132.523438 153.757812 L 132.523438 173.589844 L 34.125 173.589844 L 34.125 153.757812 " fill-opacity="1" fill-rule="nonzero"/></g><g clip-path="url(#5b3d5d63c3)"><path fill="#ffffff" d="M 34.117188 173.457031 L 34.117188 49.527344 L 53.949219 49.527344 L 53.949219 173.457031 L 34.117188 173.457031 " fill-opacity="1" fill-rule="nonzero"/></g><g clip-path="url(#a4f95ec687)"><path fill="#ffffff" d="M 181.8125 69.3125 L 83.414062 69.3125 L 83.414062 49.480469 L 181.8125 49.480469 L 181.8125 69.3125 " fill-opacity="1" fill-rule="nonzero"/></g><g clip-path="url(#bb3e3a86b9)"><path fill="#ffffff" d="M 181.820312 49.617188 L 181.820312 173.542969 L 161.988281 173.542969 L 161.988281 49.617188 L 181.820312 49.617188 " fill-opacity="1" fill-rule="nonzero"/></g><g clip-path="url(#f6378404cf)"><path fill="#ffffff" d="M 78.238281 101.679688 L 137.722656 101.679688 L 137.722656 121.511719 L 78.238281 121.511719 L 78.238281 101.679688 " fill-opacity="1" fill-rule="nonzero"/></g><g fill="#000000" fill-opacity="1"><g transform="translate(257.538513, 154.578881)"><g><path d="M 6 0 L 6 -92.40625 L 26.40625 -92.40625 L 26.40625 0 Z M 6 0 "/></g></g></g><g fill="#000000" fill-opacity="1"><g transform="translate(289.938529, 154.578881)"><g><path d="M 49.6875 -45.125 L 49.6875 -25.6875 L 8.40625 -25.6875 L 8.40625 -45.125 Z M 49.6875 -45.125 "/></g></g></g><g fill="#000000" fill-opacity="1"><g transform="translate(347.898555, 154.578881)"><g><path d="M 6 0 L 6 -92.40625 L 26.40625 -92.40625 L 26.40625 0 Z M 6 0 "/></g></g></g><g fill="#000000" fill-opacity="1"><g transform="translate(380.298571, 154.578881)"><g><path d="M 11.9375 -18.65625 C 14.300781 -20.851562 17.242188 -21.953125 20.765625 -21.953125 C 24.285156 -21.953125 27.222656 -20.851562 29.578125 -18.65625 C 31.941406 -16.457031 33.125 -13.640625 33.125 -10.203125 C 33.125 -6.765625 31.941406 -3.941406 29.578125 -1.734375 C 27.222656 0.460938 24.285156 1.5625 20.765625 1.5625 C 17.242188 1.5625 14.300781 0.460938 11.9375 -1.734375 C 9.582031 -3.941406 8.40625 -6.765625 8.40625 -10.203125 C 8.40625 -13.640625 9.582031 -16.457031 11.9375 -18.65625 Z M 11.9375 -18.65625 "/></g></g></g><g fill="#000000" fill-opacity="1"><g transform="translate(421.818589, 154.578881)"><g><path d="M 56.046875 -20.640625 L 59.515625 -4.203125 C 57.441406 -2.765625 54.441406 -1.441406 50.515625 -0.234375 C 46.597656 0.960938 42.71875 1.5625 38.875 1.5625 C 31.757812 1.5625 25.78125 -0.65625 20.9375 -5.09375 C 16.101562 -9.539062 13.6875 -16.363281 13.6875 -25.5625 L 13.6875 -46.796875 L 2.40625 -46.796875 L 2.40625 -66 L 13.6875 -66 L 13.6875 -79.5625 L 34.078125 -84 L 34.078125 -66 L 56.28125 -66 L 56.28125 -46.796875 L 34.078125 -46.796875 L 34.078125 -26.765625 C 34.078125 -20.523438 36.878906 -17.40625 42.484375 -17.40625 C 44.722656 -17.40625 49.242188 -18.484375 56.046875 -20.640625 Z M 56.046875 -20.640625 "/></g></g></g><g fill="#000000" fill-opacity="1"><g transform="translate(485.53862, 154.578881)"><g><path d="M 39.59375 -67.5625 C 50.394531 -67.5625 59.035156 -63.820312 65.515625 -56.34375 C 71.992188 -48.863281 74.71875 -39.644531 73.6875 -28.6875 L 25.5625 -28.6875 C 26.039062 -23.882812 27.617188 -20.257812 30.296875 -17.8125 C 32.972656 -15.375 36.234375 -14.15625 40.078125 -14.15625 C 42.878906 -14.15625 45.316406 -14.816406 47.390625 -16.140625 C 49.472656 -17.460938 50.914062 -19.28125 51.71875 -21.59375 L 72.71875 -21.59375 C 70.5625 -13.832031 66.5 -8.03125 60.53125 -4.1875 C 54.570312 -0.351562 47.753906 1.5625 40.078125 1.5625 C 29.679688 1.5625 21.203125 -1.71875 14.640625 -8.28125 C 8.078125 -14.84375 4.796875 -23.082031 4.796875 -33 C 4.796875 -42.84375 8.054688 -51.0625 14.578125 -57.65625 C 21.097656 -64.257812 29.4375 -67.5625 39.59375 -67.5625 Z M 39.484375 -51.84375 C 32.523438 -51.84375 28.082031 -48.242188 26.15625 -41.046875 L 52.4375 -41.046875 C 51.71875 -44.316406 50.257812 -46.929688 48.0625 -48.890625 C 45.863281 -50.859375 43.003906 -51.84375 39.484375 -51.84375 Z M 39.484375 -51.84375 "/></g></g></g><g fill="#000000" fill-opacity="1"><g transform="translate(563.058644, 154.578881)"><g><path d="M 39.359375 1.5625 C 29.359375 1.5625 21.097656 -1.734375 14.578125 -8.328125 C 8.054688 -14.929688 4.796875 -23.15625 4.796875 -33 C 4.796875 -42.84375 8.054688 -51.0625 14.578125 -57.65625 C 21.097656 -64.257812 29.398438 -67.5625 39.484375 -67.5625 C 48.035156 -67.5625 55.472656 -65.097656 61.796875 -60.171875 C 68.117188 -55.253906 71.757812 -48.515625 72.71875 -39.953125 L 51.71875 -39.953125 C 50.28125 -45.796875 46.203125 -48.71875 39.484375 -48.71875 C 35.078125 -48.71875 31.632812 -47.273438 29.15625 -44.390625 C 26.675781 -41.515625 25.4375 -37.71875 25.4375 -33 C 25.4375 -28.28125 26.695312 -24.476562 29.21875 -21.59375 C 31.738281 -18.71875 35.117188 -17.28125 39.359375 -17.28125 C 42.316406 -17.28125 44.9375 -18.019531 47.21875 -19.5 C 49.5 -20.976562 51 -23.195312 51.71875 -26.15625 L 72.71875 -26.15625 C 71.675781 -17.4375 67.972656 -10.632812 61.609375 -5.75 C 55.253906 -0.875 47.835938 1.5625 39.359375 1.5625 Z M 39.359375 1.5625 "/></g></g></g><g fill="#000000" fill-opacity="1"><g transform="translate(639.378687, 154.578881)"><g><path d="M 46.078125 -67.5625 C 53.359375 -67.5625 59.117188 -65.203125 63.359375 -60.484375 C 67.597656 -55.765625 69.71875 -49.363281 69.71875 -41.28125 L 69.71875 0 L 49.3125 0 L 49.3125 -36.71875 C 49.3125 -40.5625 48.570312 -43.421875 47.09375 -45.296875 C 45.613281 -47.179688 42.914062 -48.125 39 -48.125 C 31 -48.125 27 -43.765625 27 -35.046875 L 27 0 L 6.59375 0 L 6.59375 -92.40625 L 27 -92.40625 L 27 -58.5625 C 31.875 -64.5625 38.234375 -67.5625 46.078125 -67.5625 Z M 46.078125 -67.5625 "/></g></g></g></svg>