<svg xmlns="http://www.w3.org/2000/svg" xmlns:xlink="http://www.w3.org/1999/xlink" width="900" zoomAndPan="magnify" viewBox="0 0 675 225" height="300" preserveAspectRatio="xMidYMid meet" version="1.0"><defs><g/><clipPath id="248905663c"><path d="M 0 0 L 222.84375 0 L 222.84375 222.84375 L 0 222.84375 Z M 0 0 " clip-rule="nonzero"/></clipPath><clipPath id="08e99c0968"><path d="M 33.664062 155.84375 L 137.257812 155.84375 L 137.257812 176.71875 L 33.664062 176.71875 Z M 33.664062 155.84375 " clip-rule="nonzero"/></clipPath><clipPath id="df2f87cdb5"><path d="M 33.664062 46.117188 L 54.539062 46.117188 L 54.539062 176.589844 L 33.664062 176.589844 Z M 33.664062 46.117188 " clip-rule="nonzero"/></clipPath><clipPath id="2dc5c958c6"><path d="M 85.546875 46.082031 L 189.140625 46.082031 L 189.140625 66.957031 L 85.546875 66.957031 Z M 85.546875 46.082031 " clip-rule="nonzero"/></clipPath><clipPath id="29432fa78c"><path d="M 168.265625 46.210938 L 189.140625 46.210938 L 189.140625 176.683594 L 168.265625 176.683594 Z M 168.265625 46.210938 " clip-rule="nonzero"/></clipPath><clipPath id="f5a35f7c3f"><path d="M 80.101562 101.027344 L 142.726562 101.027344 L 142.726562 121.90625 L 80.101562 121.90625 Z M 80.101562 101.027344 " clip-rule="nonzero"/></clipPath></defs><g clip-path="url(#248905663c)"><path fill="#000000" d="M 111.421875 0 C 49.886719 0 0 49.886719 0 111.421875 C 0 172.960938 49.886719 222.84375 111.421875 222.84375 C 172.960938 222.84375 222.84375 172.960938 222.84375 111.421875 C 222.84375 49.886719 172.960938 0 111.421875 0 " fill-opacity="1" fill-rule="nonzero"/></g><g clip-path="url(#08e99c0968)"><path fill="#ffffff" d="M 33.671875 155.84375 L 137.25 155.84375 L 137.25 176.71875 L 33.671875 176.71875 L 33.671875 155.84375 " fill-opacity="1" fill-rule="nonzero"/></g><g clip-path="url(#df2f87cdb5)"><path fill="#ffffff" d="M 33.664062 176.582031 L 33.664062 46.128906 L 54.539062 46.128906 L 54.539062 176.582031 L 33.664062 176.582031 " fill-opacity="1" fill-rule="nonzero"/></g><g clip-path="url(#2dc5c958c6)"><path fill="#ffffff" d="M 189.132812 66.957031 L 85.554688 66.957031 L 85.554688 46.082031 L 189.132812 46.082031 L 189.132812 66.957031 " fill-opacity="1" fill-rule="nonzero"/></g><g clip-path="url(#29432fa78c)"><path fill="#ffffff" d="M 189.140625 46.222656 L 189.140625 176.675781 L 168.265625 176.675781 L 168.265625 46.222656 L 189.140625 46.222656 " fill-opacity="1" fill-rule="nonzero"/></g><g clip-path="url(#f5a35f7c3f)"><path fill="#ffffff" d="M 80.105469 101.027344 L 142.722656 101.027344 L 142.722656 121.90625 L 80.105469 121.90625 L 80.105469 101.027344 " fill-opacity="1" fill-rule="nonzero"/></g><g fill="#000000" fill-opacity="1"><g transform="translate(222.806796, 154.500004)"><g><path d="M 6 0 L 6 -92.40625 L 26.40625 -92.40625 L 26.40625 0 Z M 6 0 "/></g></g></g><g fill="#000000" fill-opacity="1"><g transform="translate(255.206815, 154.500004)"><g><path d="M 49.6875 -45.125 L 49.6875 -25.6875 L 8.40625 -25.6875 L 8.40625 -45.125 Z M 49.6875 -45.125 "/></g></g></g><g fill="#000000" fill-opacity="1"><g transform="translate(313.166847, 154.500004)"><g><path d="M 6 0 L 6 -92.40625 L 26.40625 -92.40625 L 26.40625 0 Z M 6 0 "/></g></g></g><g fill="#000000" fill-opacity="1"><g transform="translate(345.566865, 154.500004)"><g><path d="M 11.9375 -18.65625 C 14.300781 -20.851562 17.242188 -21.953125 20.765625 -21.953125 C 24.285156 -21.953125 27.222656 -20.851562 29.578125 -18.65625 C 31.941406 -16.457031 33.125 -13.640625 33.125 -10.203125 C 33.125 -6.765625 31.941406 -3.941406 29.578125 -1.734375 C 27.222656 0.460938 24.285156 1.5625 20.765625 1.5625 C 17.242188 1.5625 14.300781 0.460938 11.9375 -1.734375 C 9.582031 -3.941406 8.40625 -6.765625 8.40625 -10.203125 C 8.40625 -13.640625 9.582031 -16.457031 11.9375 -18.65625 Z M 11.9375 -18.65625 "/></g></g></g><g fill="#000000" fill-opacity="1"><g transform="translate(387.086887, 154.500004)"><g><path d="M 56.046875 -20.640625 L 59.515625 -4.203125 C 57.441406 -2.765625 54.441406 -1.441406 50.515625 -0.234375 C 46.597656 0.960938 42.71875 1.5625 38.875 1.5625 C 31.757812 1.5625 25.78125 -0.65625 20.9375 -5.09375 C 16.101562 -9.539062 13.6875 -16.363281 13.6875 -25.5625 L 13.6875 -46.796875 L 2.40625 -46.796875 L 2.40625 -66 L 13.6875 -66 L 13.6875 -79.5625 L 34.078125 -84 L 34.078125 -66 L 56.28125 -66 L 56.28125 -46.796875 L 34.078125 -46.796875 L 34.078125 -26.765625 C 34.078125 -20.523438 36.878906 -17.40625 42.484375 -17.40625 C 44.722656 -17.40625 49.242188 -18.484375 56.046875 -20.640625 Z M 56.046875 -20.640625 "/></g></g></g><g fill="#000000" fill-opacity="1"><g transform="translate(450.806923, 154.500004)"><g><path d="M 39.59375 -67.5625 C 50.394531 -67.5625 59.035156 -63.820312 65.515625 -56.34375 C 71.992188 -48.863281 74.71875 -39.644531 73.6875 -28.6875 L 25.5625 -28.6875 C 26.039062 -23.882812 27.617188 -20.257812 30.296875 -17.8125 C 32.972656 -15.375 36.234375 -14.15625 40.078125 -14.15625 C 42.878906 -14.15625 45.316406 -14.816406 47.390625 -16.140625 C 49.472656 -17.460938 50.914062 -19.28125 51.71875 -21.59375 L 72.71875 -21.59375 C 70.5625 -13.832031 66.5 -8.03125 60.53125 -4.1875 C 54.570312 -0.351562 47.753906 1.5625 40.078125 1.5625 C 29.679688 1.5625 21.203125 -1.71875 14.640625 -8.28125 C 8.078125 -14.84375 4.796875 -23.082031 4.796875 -33 C 4.796875 -42.84375 8.054688 -51.0625 14.578125 -57.65625 C 21.097656 -64.257812 29.4375 -67.5625 39.59375 -67.5625 Z M 39.484375 -51.84375 C 32.523438 -51.84375 28.082031 -48.242188 26.15625 -41.046875 L 52.4375 -41.046875 C 51.71875 -44.316406 50.257812 -46.929688 48.0625 -48.890625 C 45.863281 -50.859375 43.003906 -51.84375 39.484375 -51.84375 Z M 39.484375 -51.84375 "/></g></g></g><g fill="#000000" fill-opacity="1"><g transform="translate(528.326955, 154.500004)"><g><path d="M 39.359375 1.5625 C 29.359375 1.5625 21.097656 -1.734375 14.578125 -8.328125 C 8.054688 -14.929688 4.796875 -23.15625 4.796875 -33 C 4.796875 -42.84375 8.054688 -51.0625 14.578125 -57.65625 C 21.097656 -64.257812 29.398438 -67.5625 39.484375 -67.5625 C 48.035156 -67.5625 55.472656 -65.097656 61.796875 -60.171875 C 68.117188 -55.253906 71.757812 -48.515625 72.71875 -39.953125 L 51.71875 -39.953125 C 50.28125 -45.796875 46.203125 -48.71875 39.484375 -48.71875 C 35.078125 -48.71875 31.632812 -47.273438 29.15625 -44.390625 C 26.675781 -41.515625 25.4375 -37.71875 25.4375 -33 C 25.4375 -28.28125 26.695312 -24.476562 29.21875 -21.59375 C 31.738281 -18.71875 35.117188 -17.28125 39.359375 -17.28125 C 42.316406 -17.28125 44.9375 -18.019531 47.21875 -19.5 C 49.5 -20.976562 51 -23.195312 51.71875 -26.15625 L 72.71875 -26.15625 C 71.675781 -17.4375 67.972656 -10.632812 61.609375 -5.75 C 55.253906 -0.875 47.835938 1.5625 39.359375 1.5625 Z M 39.359375 1.5625 "/></g></g></g><g fill="#000000" fill-opacity="1"><g transform="translate(604.647005, 154.500004)"><g><path d="M 46.078125 -67.5625 C 53.359375 -67.5625 59.117188 -65.203125 63.359375 -60.484375 C 67.597656 -55.765625 69.71875 -49.363281 69.71875 -41.28125 L 69.71875 0 L 49.3125 0 L 49.3125 -36.71875 C 49.3125 -40.5625 48.570312 -43.421875 47.09375 -45.296875 C 45.613281 -47.179688 42.914062 -48.125 39 -48.125 C 31 -48.125 27 -43.765625 27 -35.046875 L 27 0 L 6.59375 0 L 6.59375 -92.40625 L 27 -92.40625 L 27 -58.5625 C 31.875 -64.5625 38.234375 -67.5625 46.078125 -67.5625 Z M 46.078125 -67.5625 "/></g></g></g></svg>